<svg xmlns="http://www.w3.org/2000/svg" width="512" height="512" viewBox="0 0 512 512" role="img" aria-labelledby="title desc">
  <title id="title">CellForge monochrome mark</title>
  <desc id="desc">A monochrome angular forge frame holding four cells.</desc>
  <rect width="512" height="512" rx="108" fill="#ffffff"/>
  <path d="M143 72h226l71 71v226l-71 71H143l-71-71V143l71-71Z" fill="#ffffff" stroke="#111111" stroke-width="18" stroke-linejoin="round"/>
  <path d="M177 157h142l36 36v126l-36 36H177l-20-20V177l20-20Z" fill="#ffffff" stroke="#111111" stroke-width="14" stroke-linejoin="round"/>
  <rect x="184" y="184" width="64" height="64" rx="14" fill="#111111"/>
  <rect x="264" y="184" width="64" height="64" rx="14" fill="#111111" opacity=".38"/>
  <rect x="184" y="264" width="64" height="64" rx="14" fill="#111111" opacity=".38"/>
  <rect x="264" y="264" width="64" height="64" rx="14" fill="#111111"/>
  <path d="M256 72v85M256 355v85M72 256h85M355 256h85" stroke="#111111" stroke-width="16" stroke-linecap="round"/>
</svg>
