<svg xmlns="http://www.w3.org/2000/svg" width="980" height="256" viewBox="0 0 980 256" role="img" aria-labelledby="title desc">
  <title id="title">CellForge</title>
  <desc id="desc">CellForge wordmark with an angular cell mark.</desc>
  <rect width="980" height="256" rx="40" fill="#090909"/>
  <g transform="translate(52 48)">
    <rect width="160" height="160" rx="34" fill="#111111"/>
    <path d="M45 22h70l23 23v70l-23 23H45l-23-23V45l23-23Z" fill="#171717" stroke="#3a3a3a" stroke-width="7" stroke-linejoin="round"/>
    <path d="M57 50h45l11 11v41l-11 11H57l-7-7V57l7-7Z" fill="#0b0b0b" stroke="#9b9b9b" stroke-width="5" stroke-linejoin="round"/>
    <rect x="60" y="60" width="22" height="22" rx="5" fill="#f4f4f5"/>
    <rect x="88" y="60" width="22" height="22" rx="5" fill="#f4f4f5" opacity=".42"/>
    <rect x="60" y="88" width="22" height="22" rx="5" fill="#f4f4f5" opacity=".42"/>
    <rect x="88" y="88" width="22" height="22" rx="5" fill="#f4f4f5"/>
    <path d="M80 22v28M80 110v28M22 80h28M110 80h28" stroke="#c8c8c8" stroke-width="6" stroke-linecap="round"/>
  </g>
  <text x="254" y="119" fill="#f4f4f5" font-family="Inter, Geist, Arial, sans-serif" font-size="66" font-weight="760" letter-spacing="0">CellForge</text>
  <text x="258" y="162" fill="#a1a1aa" font-family="Inter, Geist, Arial, sans-serif" font-size="24" font-weight="500" letter-spacing="0">loader primitives and tuning tools</text>
  <g transform="translate(760 76)" fill="#f4f4f5">
    <rect width="22" height="22" rx="5" opacity=".25"/>
    <rect x="34" width="22" height="22" rx="5" opacity=".55"/>
    <rect x="68" width="22" height="22" rx="5"/>
    <rect y="34" width="22" height="22" rx="5" opacity=".55"/>
    <rect x="34" y="34" width="22" height="22" rx="5"/>
    <rect x="68" y="34" width="22" height="22" rx="5" opacity=".25"/>
    <rect y="68" width="22" height="22" rx="5"/>
    <rect x="34" y="68" width="22" height="22" rx="5" opacity=".25"/>
    <rect x="68" y="68" width="22" height="22" rx="5" opacity=".55"/>
  </g>
</svg>
