<svg xmlns="http://www.w3.org/2000/svg" width="190" height="190" viewBox="0 0 190 190" fill="none">
  <defs>
    <filter id="cellGlow" x="-45%" y="-45%" width="190%" height="190%" color-interpolation-filters="sRGB">
      <feGaussianBlur stdDeviation="4" result="blur"/>
      <feColorMatrix in="blur" type="matrix" values="1 0 0 0 0.95 0 1 0 0 0.95 0 0 1 0 0.95 0 0 0 .68 0"/>
      <feMerge>
        <feMergeNode/>
        <feMergeNode in="SourceGraphic"/>
      </feMerge>
    </filter>
  </defs>
  <rect width="190" height="190" rx="36" fill="#070807"/>
  <g fill="#262626" stroke="#5d5d5d" stroke-width="2" stroke-linejoin="round">
    <path d="M44 51 62 33h34v14H69L46 70v22H32V61l12-10Z"/>
    <path d="M146 51l-18-18H94v14h27l23 23v22h14V61l-12-10Z"/>
    <path d="M44 139l18 18h34v-14H69l-23-23V98H32v31l12 10Z"/>
    <path d="M146 139l-18 18H94v-14h27l23-23V98h14v31l-12 10Z"/>
  </g>
  <path d="M63 62h29l9 9h24l13 13v32l-13 13h-24l-9 9H63l-13-13V75l13-13Z" fill="#202020" stroke="#484848" stroke-width="3" stroke-linejoin="round"/>
  <g fill="#f8f8f5" filter="url(#cellGlow)">
    <rect x="66" y="66" width="27" height="27" rx="6"/>
    <rect x="100" y="66" width="27" height="27" rx="6"/>
    <rect x="66" y="100" width="27" height="27" rx="6"/>
    <rect x="100" y="100" width="27" height="27" rx="6"/>
  </g>
  <g stroke="#f4f4f2" stroke-width="5" stroke-linecap="square" filter="url(#cellGlow)">
    <path d="M86 47v12M95 47v12M104 47v12"/>
    <path d="M86 131v12M95 131v12M104 131v12"/>
    <path d="M47 86h12M47 95h12M47 104h12"/>
    <path d="M131 86h12M131 95h12M131 104h12"/>
  </g>
</svg>
